<svg width="20" height="20" viewBox="0 0 20 20" fill="none" xmlns="http://www.w3.org/2000/svg">
<g clip-path="url(#clip0_562_27456)">
<path d="M10 20C15.5228 20 20 15.5228 20 10C20 4.47715 15.5228 0 10 0C4.47715 0 0 4.47715 0 10C0 15.5228 4.47715 20 10 20Z" fill="#F0F0F0"/>
<path d="M0 10C0 4.47719 4.47719 0 10 0C15.5228 0 20 4.47719 20 10" fill="#D80027"/>
<path d="M6.08562 5.21922C6.08562 3.76227 7.10957 2.54516 8.47691 2.24652C8.26676 2.20066 8.04875 2.17578 7.82472 2.17578C6.14383 2.17578 4.78125 3.53836 4.78125 5.21926C4.78125 6.90016 6.14383 8.26273 7.82472 8.26273C8.04867 8.26273 8.26672 8.23785 8.47691 8.19195C7.10957 7.89332 6.08562 6.67621 6.08562 5.21922Z" fill="#F0F0F0"/>
<path d="M10.0002 2.39453L10.2161 3.05879H10.9146L10.3495 3.46938L10.5653 4.13363L10.0002 3.72313L9.43516 4.13363L9.65102 3.46938L9.08594 3.05879H9.78438L10.0002 2.39453Z" fill="#F0F0F0"/>
<path d="M8.305 3.69922L8.52082 4.36352H9.21929L8.65422 4.77406L8.87008 5.43832L8.305 5.02781L7.73984 5.43832L7.95574 4.77406L7.39062 4.36352H8.0891L8.305 3.69922Z" fill="#F0F0F0"/>
<path d="M11.6916 3.69922L11.9075 4.36352H12.606L12.0409 4.77406L12.2568 5.43832L11.6916 5.02781L11.1266 5.43832L11.3424 4.77406L10.7773 4.36352H11.4758L11.6916 3.69922Z" fill="#F0F0F0"/>
<path d="M11.0393 5.65625L11.2552 6.32055H11.9536L11.3885 6.73109L11.6044 7.39535L11.0393 6.98484L10.4742 7.39535L10.6901 6.73109L10.125 6.32055H10.8234L11.0393 5.65625Z" fill="#F0F0F0"/>
<path d="M8.9573 5.65625L9.17312 6.32055H9.87164L9.30652 6.73109L9.52242 7.39535L8.9573 6.98484L8.39219 7.39535L8.60805 6.73109L8.04297 6.32055H8.74144L8.9573 5.65625Z" fill="#F0F0F0"/>
</g>
<defs>
<clipPath id="clip0_562_27456">
<rect width="20" height="20" fill="white"/>
</clipPath>
</defs>
</svg>
