<svg width="33" height="33" viewBox="0 0 33 33" fill="none" xmlns="http://www.w3.org/2000/svg">
<g clip-path="url(#clip0_325_4327)">
<path d="M10.0592 27.9465C10.0592 30.5463 7.95318 32.6496 5.35335 32.6496C2.75352 32.6496 0.6502 30.5463 0.6502 27.9465C0.6502 25.3466 2.75625 23.2379 5.35335 23.2379C7.95046 23.2379 10.0592 25.3466 10.0592 27.9465ZM21.3561 27.9465C21.3561 30.5463 19.2473 32.6496 16.6475 32.6496C14.0476 32.6496 11.9416 30.5436 11.9416 27.9465C11.9416 25.3494 14.0504 23.2379 16.6475 23.2379C19.2446 23.2379 21.3561 25.3466 21.3561 27.9465ZM10.0592 16.6523C10.0592 19.2522 7.95318 21.3582 5.35335 21.3582C2.75352 21.3582 0.6502 19.2522 0.6502 16.6523C0.6502 14.0525 2.75625 11.9465 5.35335 11.9465C7.95046 11.9465 10.0592 14.0525 10.0592 16.6523ZM21.3561 16.6523C21.3561 19.2522 19.2473 21.3582 16.6475 21.3582C14.0476 21.3582 11.9416 19.2522 11.9416 16.6523C11.9416 14.0525 14.0504 11.9465 16.6475 11.9465C19.2446 11.9465 21.3561 14.0525 21.3561 16.6523ZM32.6502 16.6523C32.6502 19.2522 30.5441 21.3582 27.9443 21.3582C25.3445 21.3582 23.2384 19.2522 23.2384 16.6523C23.2384 14.0525 25.3472 11.9465 27.9443 11.9465C30.5414 11.9465 32.6502 14.0525 32.6502 16.6523ZM10.0592 5.35823C10.0592 7.95806 7.95318 10.0641 5.35335 10.0641C2.75352 10.0641 0.6502 7.95806 0.6502 5.35823C0.6502 2.7584 2.75625 0.652344 5.35335 0.652344C7.95046 0.652344 10.0592 2.76112 10.0592 5.35823ZM21.3561 5.35823C21.3561 7.95806 19.2473 10.0641 16.6475 10.0641C14.0476 10.0641 11.9416 7.95806 11.9416 5.35823C11.9416 2.7584 14.0504 0.652344 16.6475 0.652344C19.2446 0.652344 21.3561 2.76112 21.3561 5.35823ZM32.6502 5.35823C32.6502 7.95806 30.5441 10.0641 27.9443 10.0641C25.3445 10.0641 23.2384 7.95806 23.2384 5.35823C23.2384 2.7584 25.3445 0.652344 27.9416 0.652344C30.5387 0.652344 32.6475 2.76112 32.6475 5.35823" fill="#70A243"/>
<path d="M32.6502 27.9469C32.6502 30.5467 30.5442 32.65 27.9443 32.65C25.3445 32.65 23.2384 30.544 23.2384 27.9469C23.2384 25.3498 25.3472 23.2383 27.9443 23.2383C30.5414 23.2383 32.6502 25.3471 32.6502 27.9469Z" fill="white"/>
</g>
<defs>
<clipPath id="clip0_325_4327">
<rect width="32" height="32" fill="white" transform="tranprimary(0.650002 0.648438)"/>
</clipPath>
</defs>
</svg>
