<svg width="150" height="43" viewBox="0 0 150 43" fill="none" xmlns="http://www.w3.org/2000/svg">
<g clip-path="url(#clip0_15_29521)">
<mask id="mask0_15_29521" style="mask-type:luminance" maskUnits="userSpaceOnUse" x="0" y="0" width="151" height="43">
<path d="M150.001 0.03125H0.000793457V42.3779H150.001V0.03125Z" fill="white"/>
</mask>
<g mask="url(#mask0_15_29521)">
<mask id="mask1_15_29521" style="mask-type:luminance" maskUnits="userSpaceOnUse" x="0" y="0" width="151" height="43">
<path d="M150.001 0.0585938H0.00131226V42.4053H150.001V0.0585938Z" fill="white"/>
</mask>
<g mask="url(#mask1_15_29521)">
<path d="M1.48132 42.2873H0.00131226V35.5547H1.48132V42.2873ZM4.00716 37.4117V38.0923H4.03503C4.20371 37.8092 4.42373 37.6023 4.69656 37.4747C4.96498 37.3442 5.24221 37.2811 5.5253 37.2811C5.88174 37.2811 6.17803 37.3295 6.40685 37.4278C6.63568 37.5246 6.81463 37.6596 6.94811 37.8312C7.08012 38.0043 7.17399 38.2125 7.2268 38.4634C7.2796 38.7113 7.30894 38.9855 7.30894 39.2862V42.2859H5.96828V39.5327C5.96828 39.1308 5.90814 38.8286 5.77906 38.6335C5.65438 38.434 5.43143 38.3343 5.11313 38.3343C4.7479 38.3343 4.48387 38.4428 4.31959 38.6599C4.15531 38.877 4.0761 39.2349 4.0761 39.7322V42.2873H2.73544V37.4117H4.00716ZM11.0962 37.4117V38.3093H10.1164V40.7208C10.1164 40.9481 10.1531 41.0977 10.2308 41.1755C10.3042 41.2488 10.4582 41.2884 10.6811 41.2884C10.7574 41.2884 10.8293 41.2826 10.8997 41.2782C10.9686 41.2723 11.0332 41.262 11.0962 41.2503V42.2888C10.9848 42.3064 10.8571 42.3196 10.7207 42.3255C10.5799 42.3328 10.4464 42.3357 10.3144 42.3357C10.1076 42.3357 9.90959 42.3196 9.72624 42.2932C9.53995 42.2639 9.37567 42.2096 9.23632 42.1289C9.09404 42.0438 8.9811 41.928 8.90042 41.7769C8.81682 41.6273 8.77575 41.4292 8.77575 41.1843V38.3093H7.96607V37.4117H8.77575V35.9507H10.1149V37.4117H11.0948H11.0962ZM14.7809 38.5528C14.6195 38.3798 14.3745 38.2917 14.0489 38.2917C13.8333 38.2917 13.6543 38.3255 13.5165 38.3974C13.3727 38.4692 13.2612 38.5602 13.1762 38.6658C13.094 38.7714 13.0324 38.8858 12.9957 39.0046C12.9635 39.1249 12.9415 39.232 12.9341 39.3244H15.1138C15.0522 38.9855 14.9407 38.7289 14.7809 38.5514M13.2671 41.1183C13.4651 41.3119 13.757 41.4102 14.1355 41.4102C14.4039 41.4102 14.6356 41.3427 14.8307 41.2092C15.0258 41.0728 15.1432 40.9291 15.1901 40.7795H16.3679C16.1802 41.3632 15.8883 41.7813 15.5011 42.0321C15.1094 42.2844 14.64 42.4091 14.0856 42.4091C13.7027 42.4091 13.3551 42.346 13.05 42.2243C12.7435 42.104 12.4824 41.928 12.2667 41.7021C12.0511 41.4762 11.8868 41.2048 11.771 40.8924C11.6551 40.5785 11.5979 40.2323 11.5979 39.8539C11.5979 39.4755 11.658 39.1513 11.7768 38.8359C11.8971 38.525 12.0643 38.2492 12.2858 38.0189C12.5044 37.7916 12.7684 37.6097 13.0735 37.4777C13.3771 37.3471 13.7145 37.2811 14.0856 37.2811C14.5022 37.2811 14.863 37.3603 15.1696 37.5202C15.4776 37.6816 15.7313 37.8972 15.9294 38.1671C16.1274 38.437 16.2697 38.745 16.3591 39.0912C16.4471 39.4373 16.4779 39.7982 16.4545 40.1766H12.9341C12.9547 40.6078 13.0662 40.9217 13.2686 41.1183M18.6122 37.4117V38.3167H18.6312C18.6928 38.1656 18.7779 38.0263 18.885 37.8972C18.9921 37.7696 19.1138 37.6596 19.2517 37.5657C19.391 37.4777 19.5377 37.4058 19.6961 37.3559C19.8516 37.3046 20.0174 37.2797 20.186 37.2797C20.274 37.2797 20.3723 37.2958 20.4779 37.3281V38.5719C20.4149 38.5587 20.34 38.5484 20.2506 38.5396C20.164 38.5308 20.079 38.525 19.9968 38.525C19.7504 38.525 19.5436 38.566 19.3749 38.6482C19.2033 38.7303 19.0683 38.8418 18.9642 38.9826C18.86 39.1249 18.7882 39.2877 18.7412 39.4784C18.6987 39.6647 18.6782 39.87 18.6782 40.0901V42.2873H17.339V37.4117H18.6122ZM22.5403 37.4117V38.0923H22.5696C22.7397 37.8092 22.9583 37.6023 23.2311 37.4747C23.501 37.3442 23.7782 37.2811 24.0584 37.2811C24.4178 37.2811 24.7126 37.3295 24.9414 37.4278C25.1688 37.5246 25.3492 37.6596 25.4827 37.8312C25.6132 38.0043 25.7071 38.2125 25.7614 38.4634C25.8142 38.7113 25.8391 38.9855 25.8391 39.2862V42.2859H24.4999V39.5327C24.4999 39.1308 24.4383 38.8286 24.3122 38.6335C24.1875 38.434 23.9645 38.3343 23.6433 38.3343C23.2781 38.3343 23.0126 38.4428 22.8512 38.6599C22.6869 38.877 22.6063 39.2349 22.6063 39.7322V42.2873H21.2671V37.4117H22.5388H22.5403ZM29.7775 40.0196C29.6924 40.0475 29.6015 40.0725 29.5061 40.0901C29.4078 40.1091 29.3052 40.1253 29.1966 40.1385C29.091 40.1502 28.9839 40.1634 28.8783 40.1854C28.7757 40.203 28.6788 40.2265 28.5806 40.2617C28.4823 40.2925 28.3972 40.3321 28.3239 40.3849C28.2535 40.4421 28.1963 40.5081 28.1508 40.5917C28.1039 40.6724 28.0877 40.7765 28.0877 40.9012C28.0877 41.0259 28.1053 41.1241 28.1508 41.2048C28.1963 41.284 28.2549 41.3515 28.3297 41.3984C28.4089 41.4439 28.4926 41.4791 28.5938 41.4967C28.6964 41.5158 28.7991 41.5261 28.9077 41.5261C29.1688 41.5261 29.3726 41.4835 29.5179 41.394C29.6616 41.306 29.7701 41.2004 29.8361 41.0787C29.908 40.9555 29.9462 40.8293 29.9652 40.7061C29.9799 40.5814 29.9872 40.4802 29.9872 40.4054V39.9038C29.933 39.9536 29.8596 39.9947 29.776 40.0226M27.1343 38.1275C27.2707 37.9206 27.4453 37.7549 27.6594 37.6273C27.875 37.5041 28.1156 37.4131 28.384 37.3603C28.6495 37.3075 28.9194 37.2811 29.1908 37.2811C29.4342 37.2811 29.6836 37.2958 29.9359 37.3325C30.1867 37.3662 30.417 37.4322 30.6224 37.5334C30.8292 37.6346 30.9993 37.774 31.1313 37.9529C31.2634 38.1304 31.3308 38.3695 31.3308 38.6643V41.2004C31.3308 41.4204 31.3426 41.6302 31.3675 41.8312C31.3924 42.0321 31.4379 42.1832 31.4995 42.2844H30.1427C30.1178 42.2067 30.0958 42.1318 30.0811 42.0526C30.065 41.9764 30.0547 41.8942 30.0474 41.8136C29.8332 42.0336 29.5824 42.1876 29.2949 42.2756C29.0045 42.3665 28.7096 42.4076 28.4089 42.4076C28.1728 42.4076 27.9586 42.3797 27.7577 42.3225C27.5553 42.2653 27.3778 42.1773 27.2282 42.0585C27.0786 41.9397 26.9597 41.7886 26.8747 41.6067C26.7896 41.4234 26.7485 41.2048 26.7485 40.9555C26.7485 40.6782 26.7969 40.4494 26.8952 40.2719C26.9905 40.093 27.1182 39.9492 27.2707 39.8422C27.4291 39.7351 27.6022 39.6559 27.8017 39.6001C27.9982 39.5473 28.1992 39.5033 28.4001 39.474C28.6011 39.4403 28.7991 39.4168 28.9927 39.4007C29.1893 39.3801 29.3609 39.3522 29.512 39.3141C29.6645 39.276 29.7833 39.2217 29.8714 39.1498C29.9594 39.0765 30.0004 38.9723 29.9931 38.8315C29.9931 38.6878 29.9711 38.5748 29.9227 38.4898C29.8758 38.4018 29.8112 38.3387 29.7364 38.2888C29.6557 38.2419 29.5633 38.2111 29.4621 38.1964C29.358 38.1788 29.2465 38.17 29.1262 38.17C28.8607 38.17 28.6539 38.2287 28.5043 38.3416C28.3517 38.4546 28.2652 38.6452 28.2403 38.9093H26.8981C26.9201 38.5954 26.9964 38.3328 27.1372 38.1245M35.1372 37.4117V38.3093H34.1574V40.7208C34.1574 40.9481 34.1955 41.0977 34.2718 41.1755C34.3451 41.2488 34.4977 41.2884 34.7235 41.2884C34.7984 41.2884 34.8702 41.2826 34.9421 41.2782C35.0096 41.2723 35.0756 41.262 35.1372 41.2503V42.2888C35.0257 42.3064 34.8981 42.3196 34.7602 42.3255C34.6223 42.3328 34.4874 42.3357 34.3568 42.3357C34.15 42.3357 33.9505 42.3196 33.7672 42.2932C33.5824 42.2639 33.4181 42.2096 33.2787 42.1289C33.135 42.0438 33.025 41.928 32.9428 41.7769C32.8622 41.6273 32.8211 41.4292 32.8211 41.1843V38.3093H32.0114V37.4117H32.8211V35.9507H34.1588V37.4117H35.1387H35.1372ZM37.2479 42.2873H35.9087V37.4131H37.2479V42.2873ZM35.9117 35.5576H37.2509V36.6577H35.9117V35.5576ZM39.6462 40.4245C39.6814 40.6108 39.7444 40.778 39.8383 40.9261C39.9292 41.0713 40.051 41.1902 40.2006 41.2782C40.3517 41.3662 40.5424 41.4087 40.7668 41.4087C40.9912 41.4087 41.1804 41.3662 41.3359 41.2782C41.4899 41.1887 41.6131 41.0713 41.7041 40.9261C41.795 40.7795 41.8596 40.6122 41.8977 40.4245C41.9358 40.2382 41.9549 40.0504 41.9549 39.8539C41.9549 39.6573 41.9358 39.4681 41.8977 39.2804C41.8596 39.0912 41.795 38.9254 41.7041 38.7802C41.6131 38.635 41.4899 38.5162 41.3359 38.4252C41.1804 38.3358 40.9941 38.2917 40.7668 38.2917C40.5394 38.2917 40.3502 38.3358 40.2006 38.4252C40.051 38.5176 39.9292 38.635 39.8383 38.7802C39.7459 38.9239 39.6828 39.0897 39.6462 39.2804C39.608 39.4681 39.586 39.6603 39.586 39.8539C39.586 40.0475 39.608 40.2382 39.6462 40.4245ZM38.4258 38.7934C38.5475 38.4766 38.7162 38.2052 38.9377 37.9808C39.1562 37.7593 39.4203 37.5862 39.7298 37.4645C40.0378 37.3413 40.384 37.2811 40.7668 37.2811C41.1496 37.2811 41.4958 37.3413 41.8068 37.4645C42.1163 37.5862 42.3832 37.7593 42.6032 37.9808C42.8233 38.2052 42.9949 38.4766 43.1122 38.7934C43.2325 39.1117 43.2941 39.4623 43.2941 39.8539C43.2941 40.2455 43.2325 40.5976 43.1122 40.91C42.9934 41.2254 42.8218 41.4938 42.6032 41.7153C42.3832 41.9382 42.1163 42.1098 41.8068 42.2301C41.4958 42.3489 41.1496 42.4091 40.7668 42.4091C40.384 42.4091 40.0378 42.3489 39.7298 42.2301C39.4203 42.1113 39.1562 41.9382 38.9377 41.7153C38.7177 41.4923 38.549 41.2254 38.4258 40.91C38.307 40.5976 38.2468 40.2455 38.2468 39.8539C38.2468 39.4623 38.307 39.1117 38.4258 38.7934ZM45.5251 37.4117V38.0923H45.5559C45.7246 37.8092 45.9446 37.6023 46.216 37.4747C46.4859 37.3442 46.7616 37.2811 47.0447 37.2811C47.4026 37.2811 47.6975 37.3295 47.9263 37.4278C48.1551 37.5246 48.337 37.6596 48.4675 37.8312C48.601 38.0043 48.6934 38.2125 48.7462 38.4634C48.799 38.7113 48.8254 38.9855 48.8254 39.2862V42.2859H47.4862V39.5327C47.4862 39.1308 47.4261 38.8286 47.2985 38.6335C47.1723 38.434 46.9479 38.3343 46.6311 38.3343C46.2658 38.3343 46.0018 38.4428 45.8375 38.6599C45.6762 38.877 45.594 39.2349 45.594 39.7322V42.2873H44.2563V37.4117H45.5266H45.5251ZM52.7623 40.0196C52.6787 40.0475 52.5848 40.0725 52.4895 40.0901C52.3912 40.1091 52.2886 40.1253 52.1815 40.1385C52.0759 40.1502 51.9673 40.1634 51.8617 40.1854C51.762 40.203 51.6637 40.2265 51.564 40.2617C51.4671 40.2925 51.3835 40.3321 51.3102 40.3849C51.2383 40.4421 51.1811 40.5081 51.1356 40.5917C51.0931 40.6724 51.0711 40.7765 51.0711 40.9012C51.0711 41.0259 51.0931 41.1241 51.1356 41.2048C51.1811 41.284 51.2398 41.3515 51.3146 41.3984C51.3894 41.4439 51.4774 41.4791 51.5786 41.4967C51.6813 41.5158 51.784 41.5261 51.8896 41.5261C52.1536 41.5261 52.3575 41.4835 52.5027 41.394C52.6479 41.306 52.7535 41.2004 52.8225 41.0787C52.8929 40.9555 52.9339 40.8293 52.9501 40.7061C52.9648 40.5814 52.975 40.4802 52.975 40.4054V39.9038C52.9178 39.9536 52.8445 39.9947 52.7623 40.0226M50.1177 38.1275C50.2556 37.9206 50.4316 37.7549 50.6457 37.6273C50.8584 37.5041 51.1004 37.4131 51.3659 37.3603C51.6329 37.3075 51.9028 37.2811 52.1727 37.2811C52.4162 37.2811 52.6655 37.2958 52.9178 37.3325C53.1672 37.3662 53.3975 37.4322 53.6057 37.5334C53.8126 37.6346 53.9827 37.774 54.1147 37.9529C54.2482 38.1304 54.3127 38.3695 54.3127 38.6643V41.2004C54.3127 41.4204 54.3259 41.6302 54.3509 41.8312C54.3773 42.0321 54.4198 42.1832 54.4844 42.2844H53.1261C53.1026 42.2067 53.0792 42.1318 53.066 42.0526C53.0498 41.9764 53.0381 41.8942 53.0322 41.8136C52.8181 42.0336 52.5672 42.1876 52.2783 42.2756C51.9893 42.3665 51.693 42.4076 51.3923 42.4076C51.1606 42.4076 50.9435 42.3797 50.744 42.3225C50.5416 42.2653 50.3656 42.1773 50.2145 42.0585C50.0634 41.9397 49.9461 41.7886 49.8625 41.6067C49.7759 41.4234 49.7363 41.2048 49.7363 40.9555C49.7363 40.6782 49.7847 40.4494 49.8801 40.2719C49.9783 40.093 50.1059 39.9492 50.2585 39.8422C50.4125 39.7351 50.5885 39.6559 50.7865 39.6001C50.986 39.5473 51.1855 39.5033 51.385 39.474C51.5845 39.4403 51.7854 39.4168 51.9776 39.4007C52.1727 39.3801 52.3472 39.3522 52.4954 39.3141C52.6479 39.276 52.7653 39.2217 52.8533 39.1498C52.9413 39.0765 52.9824 38.9723 52.978 38.8315C52.978 38.6878 52.953 38.5748 52.9046 38.4898C52.8591 38.4018 52.7946 38.3387 52.7183 38.2888C52.6406 38.2419 52.5496 38.2111 52.4455 38.1964C52.3414 38.1788 52.2284 38.17 52.1096 38.17C51.8485 38.17 51.6388 38.2287 51.4891 38.3416C51.3366 38.4546 51.2486 38.6452 51.2251 38.9093H49.8845C49.9035 38.5954 49.9813 38.3328 50.1221 38.1245M56.821 42.2873H55.4803V35.5547H56.821V42.2873Z" fill="#70A243"/>
<path d="M0.0334167 7.79501H4.46024V16.455L10.6692 7.79501H16.1786L8.21673 18.623L16.1786 30.4381H10.6692L4.46024 20.8496V30.4381H0.0334167V7.79501ZM22.9904 19.1012C20.953 19.1012 19.297 20.8496 19.297 22.9882C19.297 25.1268 20.953 26.8078 22.9904 26.8078C25.0278 26.8078 26.6207 25.184 26.6207 22.9882C26.6207 20.7924 24.9985 19.1012 22.9904 19.1012ZM22.8951 30.8503C20.7946 30.8503 18.8217 30.023 17.3535 28.5254C15.8911 27.0615 15.0916 25.0872 15.0916 22.953C15.0916 20.8188 15.8911 18.8459 17.3535 17.3791C18.8217 15.8815 20.7946 15.0513 22.8335 15.0513C25.0278 15.0513 26.9082 15.817 28.4088 17.2823C29.745 18.5892 30.3494 20.4037 31.0813 22.4733L33.9152 30.4366H29.2991L28.4088 27.8536C27.0681 29.8924 25.2537 30.8473 22.8965 30.8473M41.6995 19.0674C39.5976 19.0674 38.0046 20.7572 38.0046 22.9559C38.0046 25.1547 39.6607 26.8078 41.635 26.8078C43.7369 26.8078 45.2331 25.2808 45.2331 22.9559C45.2331 20.631 43.7706 19.0674 41.6995 19.0674ZM49.28 21.0109C49.28 23.6835 49.2169 25.7561 48.196 27.4443C46.8612 29.6416 44.5349 30.8517 41.5734 30.8517C39.5345 30.8517 37.591 30.023 36.1271 28.5268C34.6618 27.0615 33.8653 25.0564 33.8653 22.9545C33.8653 20.8525 34.6618 18.8753 36.1271 17.3806C37.5587 15.9152 39.3453 15.151 41.2859 15.151C42.9742 15.151 44.3119 15.6923 45.2331 16.6795V7.73047H49.28V21.0109ZM58.9756 18.6523C57.3181 18.6523 56.108 19.5456 55.7251 21.0755H62.2231C61.9048 19.6101 60.6301 18.6523 58.9756 18.6523ZM58.9756 30.8503C56.9044 30.8503 54.9624 30.0553 53.4956 28.5577C52.0317 27.0615 51.2352 25.0549 51.2352 22.9545C51.2352 20.854 52.0317 18.8767 53.4956 17.3806C54.9624 15.883 56.9044 15.0865 58.9756 15.0865C63.3393 15.0865 66.713 18.4631 66.713 23.6527V23.8741H55.4714C55.951 25.7223 57.3503 26.8386 59.1662 26.8386C60.2487 26.8386 61.013 26.3252 62.0001 25.5008L64.5788 28.3978C62.8611 30.0553 61.076 30.8488 58.9756 30.8488M68.5039 22.5687C68.5039 17.5727 70.8596 15.0528 75.4786 15.0528C77.4529 15.0528 79.2366 15.8184 80.4467 17.0638C81.9105 18.5599 82.1012 20.2438 82.1012 22.5672V30.4366H78.0573V22.5672C78.0573 20.3406 77.164 19.2581 75.3187 19.2581C73.4735 19.2581 72.6125 20.3083 72.6125 22.5672V30.4366H68.5025V22.5672L68.5039 22.5687ZM91.7587 30.8503C89.6876 30.8503 87.7455 30.0553 86.2802 28.5577C84.8148 27.0615 84.0183 25.0549 84.0183 22.9545C84.0183 20.854 84.8163 18.8767 86.2802 17.3806C87.7455 15.883 89.6876 15.0865 91.7587 15.0865C94.0205 15.0865 96.0579 16.0106 97.6494 17.8558L94.817 20.7572C94.022 19.6409 93.0641 19.1305 91.791 19.1305C89.689 19.1305 88.1283 20.9141 88.1283 23.0469C88.1283 25.1796 89.7521 26.7755 91.791 26.7755C92.9365 26.7755 93.956 26.2636 94.5603 25.4363L97.5247 28.2086C95.9288 29.9599 93.956 30.8503 91.7601 30.8503M105.903 18.6523C104.25 18.6523 103.038 19.5456 102.659 21.0755H109.154C108.837 19.6101 107.559 18.6523 105.903 18.6523ZM105.903 30.8503C103.835 30.8503 101.891 30.0553 100.426 28.5577C98.9622 27.0615 98.1642 25.0549 98.1642 22.9545C98.1642 20.854 98.9607 18.8767 100.426 17.3806C101.891 15.883 103.835 15.0865 105.903 15.0865C110.267 15.0865 113.643 18.4631 113.643 23.6527V23.8741H102.4C102.879 25.7223 104.279 26.8386 106.097 26.8386C107.179 26.8386 107.942 26.3252 108.928 25.5008L111.508 28.3978C109.79 30.0553 108.006 30.8488 105.903 30.8488" fill="white"/>
<path d="M127.715 26.9877C127.715 29.5517 125.636 31.6287 123.071 31.6287C120.505 31.6287 118.43 29.5517 118.43 26.9877C118.43 24.4237 120.508 22.3423 123.071 22.3423C125.633 22.3423 127.715 24.4222 127.715 26.9877ZM138.859 26.9877C138.859 29.5517 136.779 31.6287 134.215 31.6287C131.652 31.6287 129.572 29.5517 129.572 26.9877C129.572 24.4237 131.653 22.3423 134.215 22.3423C136.778 22.3423 138.859 24.4222 138.859 26.9877ZM127.715 15.8444C127.715 18.4083 125.636 20.4868 123.071 20.4868C120.505 20.4868 118.43 18.4083 118.43 15.8444C118.43 13.2804 120.508 11.2019 123.071 11.2019C125.633 11.2019 127.715 13.2804 127.715 15.8444ZM138.859 15.8444C138.859 18.4083 136.779 20.4868 134.215 20.4868C131.652 20.4868 129.572 18.4083 129.572 15.8444C129.572 13.2804 131.653 11.2019 134.215 11.2019C136.778 11.2019 138.859 13.2804 138.859 15.8444ZM150.001 15.8444C150.001 18.4083 147.923 20.4868 145.357 20.4868C142.792 20.4868 140.715 18.4083 140.715 15.8444C140.715 13.2804 142.795 11.2019 145.357 11.2019C147.92 11.2019 150.001 13.2804 150.001 15.8444ZM127.715 4.70104C127.715 7.26648 125.636 9.34348 123.071 9.34348C120.505 9.34348 118.43 7.26648 118.43 4.70104C118.43 2.13559 120.51 0.0585938 123.072 0.0585938C125.635 0.0585938 127.716 2.13706 127.716 4.70104M138.859 4.70104C138.859 7.26648 136.779 9.34348 134.215 9.34348C131.652 9.34348 129.572 7.26648 129.572 4.70104C129.572 2.13559 131.652 0.0585938 134.214 0.0585938C136.777 0.0585938 138.858 2.13706 138.858 4.70104M150.001 4.70104C150.001 7.26648 147.923 9.34348 145.357 9.34348C142.792 9.34348 140.715 7.26648 140.715 4.70104C140.715 2.13559 142.795 0.0585938 145.357 0.0585938C147.92 0.0585938 150.001 2.13706 150.001 4.70104Z" fill="#70A243"/>
<path d="M150.001 26.9813C150.001 29.5453 147.921 31.6223 145.357 31.6223C142.793 31.6223 140.715 29.5453 140.715 26.9813C140.715 24.4173 142.795 22.3359 145.357 22.3359C147.92 22.3359 150.001 24.4159 150.001 26.9813Z" fill="white"/>
</g>
</g>
</g>
<defs>
<clipPath id="clip0_15_29521">
<rect width="150" height="42.3467" fill="white"/>
</clipPath>
</defs>
</svg>
